<?xml version="1.0" encoding="UTF-8" standalone="no"?>
<svg
   xmlns:osb="http://www.openswatchbook.org/uri/2009/osb"
   xmlns:dc="http://purl.org/dc/elements/1.1/"
   xmlns:cc="http://creativecommons.org/ns#"
   xmlns:rdf="http://www.w3.org/1999/02/22-rdf-syntax-ns#"
   xmlns:svg="http://www.w3.org/2000/svg"
   xmlns="http://www.w3.org/2000/svg"
   xmlns:xlink="http://www.w3.org/1999/xlink"
   id="svg8"
   version="1.1"
   viewBox="0 0 254 203.19999"
   height="8in"
   width="10in">
  <defs
     id="defs2">
    <linearGradient
       osb:paint="solid"
       id="linearGradient1097">
      <stop
         id="stop1095"
         offset="0"
         style="stop-color:#000000;stop-opacity:0.71372551;" />
    </linearGradient>
    <linearGradient
       id="linearGradient1078">
      <stop
         id="stop1074"
         offset="0"
         style="stop-color:#ff6600;stop-opacity:1" />
      <stop
         id="stop1076"
         offset="1"
         style="stop-color:#abc837;stop-opacity:1" />
    </linearGradient>
    <linearGradient
       osb:paint="solid"
       id="linearGradient837">
      <stop
         id="stop835"
         offset="0"
         style="stop-color:#666666;stop-opacity:1;" />
    </linearGradient>
    <linearGradient
       gradientUnits="userSpaceOnUse"
       y2="202.05576"
       x2="124.01306"
       y1="-1.0690781"
       x1="124.01306"
       id="linearGradient1080"
       xlink:href="#linearGradient1078" />
  </defs>
  <metadata
     id="metadata5">
    <rdf:RDF>
      <cc:Work
         rdf:about="">
        <dc:format>image/svg+xml</dc:format>
        <dc:type
           rdf:resource="http://purl.org/dc/dcmitype/StillImage" />
        <dc:title></dc:title>
      </cc:Work>
    </rdf:RDF>
  </metadata>
  <g
     id="layer1" />
  <g
     id="layer2">
    <rect
       y="-0.53453904"
       x="0"
       height="203.2"
       width="254"
       id="rect1072"
       style="opacity:0.559486;fill:url(#linearGradient1080);fill-opacity:1;stroke:#000000;stroke-width:0.264999;stroke-miterlimit:4;stroke-dasharray:none;stroke-opacity:1" />
  </g>
  <g
     id="layer3">
    <rect
       transform="matrix(0.4465519,0.89475773,-0.4465519,0.89475773,0,0)"
       ry="3.9758101"
       y="-185.98003"
       x="353.65271"
       height="30.478951"
       width="30.478951"
       id="rect1105"
       style="opacity:0.601286;fill:none;fill-opacity:0.445344;stroke:#000000;stroke-width:0.331425;stroke-miterlimit:4;stroke-dasharray:none;stroke-opacity:1" />
    <rect
       style="opacity:0.601286;fill:none;fill-opacity:0.445344;stroke:#000000;stroke-width:0.331425;stroke-miterlimit:4;stroke-dasharray:none;stroke-opacity:1"
       id="rect1105-9"
       width="30.478949"
       height="30.478949"
       x="325.47787"
       y="-157.83525"
       ry="3.9758101"
       transform="matrix(0.4465519,0.89475773,-0.4465519,0.89475773,0,0)" />
    <rect
       transform="matrix(0.4465519,0.89475773,-0.4465519,0.89475773,0,0)"
       ry="3.9758101"
       y="-129.42694"
       x="297.1752"
       height="30.478947"
       width="30.478947"
       id="rect1105-9-6"
       style="opacity:0.601286;fill:none;fill-opacity:0.445344;stroke:#000000;stroke-width:0.331425;stroke-miterlimit:4;stroke-dasharray:none;stroke-opacity:1" />
    <rect
       transform="matrix(0.4465519,0.89475773,-0.4465519,0.89475773,0,0)"
       ry="3.9758101"
       y="-101.23005"
       x="268.87271"
       height="30.478947"
       width="30.478947"
       id="rect1105-9-2"
       style="opacity:0.601286;fill:none;fill-opacity:0.445344;stroke:#000000;stroke-width:0.331425;stroke-miterlimit:4;stroke-dasharray:none;stroke-opacity:1" />
    <rect
       transform="matrix(0.4465519,0.89475773,-0.4465519,0.89475773,0,0)"
       ry="3.9758101"
       y="-72.87455"
       x="240.5172"
       height="30.478947"
       width="30.478947"
       id="rect1105-9-5"
       style="opacity:0.601286;fill:none;fill-opacity:0.445344;stroke:#000000;stroke-width:0.331425;stroke-miterlimit:4;stroke-dasharray:none;stroke-opacity:1" />
    <rect
       style="opacity:0.601286;fill:none;fill-opacity:0.445344;stroke:#000000;stroke-width:0.331425;stroke-miterlimit:4;stroke-dasharray:none;stroke-opacity:1"
       id="rect1105-2"
       width="30.478949"
       height="30.478949"
       x="212.20935"
       y="-44.618111"
       ry="3.9758101"
       transform="matrix(0.4465519,0.89475773,-0.4465519,0.89475773,0,0)" />
    <rect
       transform="matrix(0.4465519,0.89475773,-0.4465519,0.89475773,0,0)"
       ry="3.9758101"
       y="-16.473328"
       x="184.03452"
       height="30.478947"
       width="30.478947"
       id="rect1105-9-1"
       style="opacity:0.601286;fill:none;fill-opacity:0.445344;stroke:#000000;stroke-width:0.331425;stroke-miterlimit:4;stroke-dasharray:none;stroke-opacity:1" />
    <rect
       style="opacity:0.601286;fill:none;fill-opacity:0.445344;stroke:#000000;stroke-width:0.331425;stroke-miterlimit:4;stroke-dasharray:none;stroke-opacity:1"
       id="rect1105-9-6-8"
       width="30.478947"
       height="30.478947"
       x="155.73184"
       y="11.934976"
       ry="3.9758101"
       transform="matrix(0.4465519,0.89475773,-0.4465519,0.89475773,0,0)" />
    <rect
       style="opacity:0.601286;fill:none;fill-opacity:0.445344;stroke:#000000;stroke-width:0.331425;stroke-miterlimit:4;stroke-dasharray:none;stroke-opacity:1"
       id="rect1105-9-2-7"
       width="30.478947"
       height="30.478947"
       x="127.42934"
       y="40.13187"
       ry="3.9758101"
       transform="matrix(0.4465519,0.89475773,-0.4465519,0.89475773,0,0)" />
    <rect
       style="opacity:0.601286;fill:none;fill-opacity:0.445344;stroke:#000000;stroke-width:0.331425;stroke-miterlimit:4;stroke-dasharray:none;stroke-opacity:1"
       id="rect1105-9-5-1"
       width="30.478947"
       height="30.478947"
       x="99.07383"
       y="68.487366"
       ry="3.9758101"
       transform="matrix(0.4465519,0.89475773,-0.4465519,0.89475773,0,0)" />
    <rect
       style="opacity:0.45016077;fill:none;fill-opacity:0.445344;stroke:#000000;stroke-width:0.331425;stroke-miterlimit:4;stroke-dasharray:none;stroke-opacity:1"
       id="rect1105-90"
       width="30.478949"
       height="30.478949"
       x="325.3634"
       y="-214.15964"
       ry="3.9758101"
       transform="matrix(0.4465519,0.89475773,-0.4465519,0.89475773,0,0)" />
    <rect
       transform="matrix(0.4465519,0.89475773,-0.4465519,0.89475773,0,0)"
       ry="3.9758101"
       y="-186.01486"
       x="297.1886"
       height="30.478947"
       width="30.478947"
       id="rect1105-9-55"
       style="opacity:0.45016077;fill:none;fill-opacity:0.445344;stroke:#000000;stroke-width:0.331425;stroke-miterlimit:4;stroke-dasharray:none;stroke-opacity:1" />
    <rect
       style="opacity:0.45016077;fill:none;fill-opacity:0.445344;stroke:#000000;stroke-width:0.331425;stroke-miterlimit:4;stroke-dasharray:none;stroke-opacity:1"
       id="rect1105-9-6-6"
       width="30.478947"
       height="30.478947"
       x="268.88593"
       y="-157.60655"
       ry="3.9758101"
       transform="matrix(0.4465519,0.89475773,-0.4465519,0.89475773,0,0)" />
    <rect
       style="opacity:0.45016077;fill:none;fill-opacity:0.445344;stroke:#000000;stroke-width:0.331425;stroke-miterlimit:4;stroke-dasharray:none;stroke-opacity:1"
       id="rect1105-9-2-3"
       width="30.478947"
       height="30.478947"
       x="240.58345"
       y="-129.40967"
       ry="3.9758101"
       transform="matrix(0.4465519,0.89475773,-0.4465519,0.89475773,0,0)" />
    <rect
       style="opacity:0.45016077;fill:none;fill-opacity:0.445344;stroke:#000000;stroke-width:0.331425;stroke-miterlimit:4;stroke-dasharray:none;stroke-opacity:1"
       id="rect1105-9-5-2"
       width="30.478947"
       height="30.478947"
       x="212.22794"
       y="-101.0542"
       ry="3.9758101"
       transform="matrix(0.4465519,0.89475773,-0.4465519,0.89475773,0,0)" />
    <rect
       transform="matrix(0.4465519,0.89475773,-0.4465519,0.89475773,0,0)"
       ry="3.9758101"
       y="-72.797745"
       x="183.92007"
       height="30.478947"
       width="30.478947"
       id="rect1105-2-6"
       style="opacity:0.45016077;fill:none;fill-opacity:0.445344;stroke:#000000;stroke-width:0.331425;stroke-miterlimit:4;stroke-dasharray:none;stroke-opacity:1" />
    <rect
       style="opacity:0.45016077;fill:none;fill-opacity:0.445344;stroke:#000000;stroke-width:0.331425;stroke-miterlimit:4;stroke-dasharray:none;stroke-opacity:1"
       id="rect1105-9-1-8"
       width="30.478947"
       height="30.478947"
       x="155.74525"
       y="-44.652946"
       ry="3.9758101"
       transform="matrix(0.4465519,0.89475773,-0.4465519,0.89475773,0,0)" />
    <rect
       transform="matrix(0.4465519,0.89475773,-0.4465519,0.89475773,0,0)"
       ry="3.9758101"
       y="-16.244652"
       x="127.44259"
       height="30.478947"
       width="30.478947"
       id="rect1105-9-6-8-9"
       style="opacity:0.45016077;fill:none;fill-opacity:0.445344;stroke:#000000;stroke-width:0.331425;stroke-miterlimit:4;stroke-dasharray:none;stroke-opacity:1" />
    <rect
       transform="matrix(0.4465519,0.89475773,-0.4465519,0.89475773,0,0)"
       ry="3.9758101"
       y="11.952243"
       x="99.140083"
       height="30.478947"
       width="30.478947"
       id="rect1105-9-2-7-1"
       style="opacity:0.45016077;fill:none;fill-opacity:0.445344;stroke:#000000;stroke-width:0.331425;stroke-miterlimit:4;stroke-dasharray:none;stroke-opacity:1" />
    <rect
       transform="matrix(0.4465519,0.89475773,-0.4465519,0.89475773,0,0)"
       ry="3.9758101"
       y="40.307735"
       x="70.784569"
       height="30.478947"
       width="30.478947"
       id="rect1105-9-5-1-4"
       style="opacity:0.45016077;fill:none;fill-opacity:0.445344;stroke:#000000;stroke-width:0.331425;stroke-miterlimit:4;stroke-dasharray:none;stroke-opacity:1" />
    <rect
       style="opacity:0.3022508;fill:none;fill-opacity:0.445344;stroke:#000000;stroke-width:0.331425;stroke-miterlimit:4;stroke-dasharray:none;stroke-opacity:1"
       id="rect1105-1"
       width="30.478949"
       height="30.478949"
       x="296.81976"
       y="-242.29887"
       ry="3.9758101"
       transform="matrix(0.4465519,0.89475773,-0.4465519,0.89475773,0,0)" />
    <rect
       transform="matrix(0.4465519,0.89475773,-0.4465519,0.89475773,0,0)"
       ry="3.9758101"
       y="-214.1541"
       x="268.64493"
       height="30.478947"
       width="30.478947"
       id="rect1105-9-14"
       style="opacity:0.3022508;fill:none;fill-opacity:0.445344;stroke:#000000;stroke-width:0.331425;stroke-miterlimit:4;stroke-dasharray:none;stroke-opacity:1" />
    <rect
       style="opacity:0.3022508;fill:none;fill-opacity:0.445344;stroke:#000000;stroke-width:0.331425;stroke-miterlimit:4;stroke-dasharray:none;stroke-opacity:1"
       id="rect1105-9-6-9"
       width="30.478947"
       height="30.478947"
       x="240.34222"
       y="-185.74579"
       ry="3.9758101"
       transform="matrix(0.4465519,0.89475773,-0.4465519,0.89475773,0,0)" />
    <rect
       style="opacity:0.3022508;fill:none;fill-opacity:0.445344;stroke:#000000;stroke-width:0.331425;stroke-miterlimit:4;stroke-dasharray:none;stroke-opacity:1"
       id="rect1105-9-2-5"
       width="30.478947"
       height="30.478947"
       x="212.03975"
       y="-157.5489"
       ry="3.9758101"
       transform="matrix(0.4465519,0.89475773,-0.4465519,0.89475773,0,0)" />
    <rect
       style="opacity:0.3022508;fill:none;fill-opacity:0.445344;stroke:#000000;stroke-width:0.331425;stroke-miterlimit:4;stroke-dasharray:none;stroke-opacity:1"
       id="rect1105-9-5-9"
       width="30.478947"
       height="30.478947"
       x="183.68423"
       y="-129.19342"
       ry="3.9758101"
       transform="matrix(0.4465519,0.89475773,-0.4465519,0.89475773,0,0)" />
    <rect
       transform="matrix(0.4465519,0.89475773,-0.4465519,0.89475773,0,0)"
       ry="3.9758101"
       y="-100.93697"
       x="155.37639"
       height="30.478947"
       width="30.478947"
       id="rect1105-2-0"
       style="opacity:0.3022508;fill:none;fill-opacity:0.445344;stroke:#000000;stroke-width:0.331425;stroke-miterlimit:4;stroke-dasharray:none;stroke-opacity:1" />
    <rect
       style="opacity:0.3022508;fill:none;fill-opacity:0.445344;stroke:#000000;stroke-width:0.331425;stroke-miterlimit:4;stroke-dasharray:none;stroke-opacity:1"
       id="rect1105-9-1-9"
       width="30.478947"
       height="30.478947"
       x="127.20157"
       y="-72.792183"
       ry="3.9758101"
       transform="matrix(0.4465519,0.89475773,-0.4465519,0.89475773,0,0)" />
    <rect
       transform="matrix(0.4465519,0.89475773,-0.4465519,0.89475773,0,0)"
       ry="3.9758101"
       y="-44.383888"
       x="98.898895"
       height="30.478947"
       width="30.478947"
       id="rect1105-9-6-8-3"
       style="opacity:0.3022508;fill:none;fill-opacity:0.445344;stroke:#000000;stroke-width:0.331425;stroke-miterlimit:4;stroke-dasharray:none;stroke-opacity:1" />
    <rect
       transform="matrix(0.4465519,0.89475773,-0.4465519,0.89475773,0,0)"
       ry="3.9758101"
       y="-16.186987"
       x="70.59639"
       height="30.478947"
       width="30.478947"
       id="rect1105-9-2-7-4"
       style="opacity:0.3022508;fill:none;fill-opacity:0.445344;stroke:#000000;stroke-width:0.331425;stroke-miterlimit:4;stroke-dasharray:none;stroke-opacity:1" />
    <rect
       transform="matrix(0.4465519,0.89475773,-0.4465519,0.89475773,0,0)"
       ry="3.9758101"
       y="12.168506"
       x="42.240879"
       height="30.478947"
       width="30.478947"
       id="rect1105-9-5-1-0"
       style="opacity:0.3022508;fill:none;fill-opacity:0.445344;stroke:#000000;stroke-width:0.331425;stroke-miterlimit:4;stroke-dasharray:none;stroke-opacity:1" />
    <rect
       style="opacity:0.1511254;fill:none;fill-opacity:0.445344;stroke:#000000;stroke-width:0.331425;stroke-miterlimit:4;stroke-dasharray:none;stroke-opacity:1"
       id="rect1105-4"
       width="30.478949"
       height="30.478949"
       x="268.41302"
       y="-270.65842"
       ry="3.9758101"
       transform="matrix(0.4465519,0.89475773,-0.4465519,0.89475773,0,0)" />
    <rect
       transform="matrix(0.4465519,0.89475773,-0.4465519,0.89475773,0,0)"
       ry="3.9758101"
       y="-242.51364"
       x="240.2382"
       height="30.478947"
       width="30.478947"
       id="rect1105-9-7"
       style="opacity:0.1511254;fill:none;fill-opacity:0.445344;stroke:#000000;stroke-width:0.331425;stroke-miterlimit:4;stroke-dasharray:none;stroke-opacity:1" />
    <rect
       style="opacity:0.1511254;fill:none;fill-opacity:0.445344;stroke:#000000;stroke-width:0.331425;stroke-miterlimit:4;stroke-dasharray:none;stroke-opacity:1"
       id="rect1105-9-6-4"
       width="30.478947"
       height="30.478947"
       x="211.93552"
       y="-214.10533"
       ry="3.9758101"
       transform="matrix(0.4465519,0.89475773,-0.4465519,0.89475773,0,0)" />
    <rect
       style="opacity:0.1511254;fill:none;fill-opacity:0.445344;stroke:#000000;stroke-width:0.331425;stroke-miterlimit:4;stroke-dasharray:none;stroke-opacity:1"
       id="rect1105-9-2-1"
       width="30.478947"
       height="30.478947"
       x="183.63304"
       y="-185.90845"
       ry="3.9758101"
       transform="matrix(0.4465519,0.89475773,-0.4465519,0.89475773,0,0)" />
    <rect
       style="opacity:0.1511254;fill:none;fill-opacity:0.445344;stroke:#000000;stroke-width:0.331425;stroke-miterlimit:4;stroke-dasharray:none;stroke-opacity:1"
       id="rect1105-9-5-8"
       width="30.478947"
       height="30.478947"
       x="155.27751"
       y="-157.55295"
       ry="3.9758101"
       transform="matrix(0.4465519,0.89475773,-0.4465519,0.89475773,0,0)" />
    <rect
       transform="matrix(0.4465519,0.89475773,-0.4465519,0.89475773,0,0)"
       ry="3.9758101"
       y="-129.29649"
       x="126.96966"
       height="30.478947"
       width="30.478947"
       id="rect1105-2-5"
       style="opacity:0.1511254;fill:none;fill-opacity:0.445344;stroke:#000000;stroke-width:0.331425;stroke-miterlimit:4;stroke-dasharray:none;stroke-opacity:1" />
    <rect
       style="opacity:0.1511254;fill:none;fill-opacity:0.445344;stroke:#000000;stroke-width:0.331425;stroke-miterlimit:4;stroke-dasharray:none;stroke-opacity:1"
       id="rect1105-9-1-89"
       width="30.478947"
       height="30.478947"
       x="98.794838"
       y="-101.15172"
       ry="3.9758101"
       transform="matrix(0.4465519,0.89475773,-0.4465519,0.89475773,0,0)" />
    <rect
       transform="matrix(0.4465519,0.89475773,-0.4465519,0.89475773,0,0)"
       ry="3.9758101"
       y="-72.743423"
       x="70.492157"
       height="30.478947"
       width="30.478947"
       id="rect1105-9-6-8-99"
       style="opacity:0.1511254;fill:none;fill-opacity:0.445344;stroke:#000000;stroke-width:0.331425;stroke-miterlimit:4;stroke-dasharray:none;stroke-opacity:1" />
    <rect
       transform="matrix(0.4465519,0.89475773,-0.4465519,0.89475773,0,0)"
       ry="3.9758101"
       y="-44.54652"
       x="42.189655"
       height="30.478947"
       width="30.478947"
       id="rect1105-9-2-7-3"
       style="opacity:0.1511254;fill:none;fill-opacity:0.445344;stroke:#000000;stroke-width:0.331425;stroke-miterlimit:4;stroke-dasharray:none;stroke-opacity:1" />
    <rect
       transform="matrix(0.4465519,0.89475773,-0.4465519,0.89475773,0,0)"
       ry="3.9758101"
       y="-16.191029"
       x="13.834145"
       height="30.478947"
       width="30.478947"
       id="rect1105-9-5-1-3"
       style="opacity:0.1511254;fill:none;fill-opacity:0.445344;stroke:#000000;stroke-width:0.331425;stroke-miterlimit:4;stroke-dasharray:none;stroke-opacity:1" />
  </g>
</svg>
